<svg width="85" height="183" viewBox="0 0 85 183" fill="none" xmlns="http://www.w3.org/2000/svg">
<path d="M20.707 42.164C19.047 42.164 17.4147 41.7767 15.81 41.002C14.2607 40.172 12.9603 38.927 11.909 37.267C10.913 35.5517 10.415 33.366 10.415 30.71C10.415 28.6627 11.328 27.058 13.154 25.896C14.98 24.6787 17.387 23.821 20.375 23.323C23.4183 22.825 26.6553 22.6313 30.086 22.742C30.75 22.742 31.7737 22.7143 33.157 22.659C34.5403 22.6037 36.0067 22.493 37.556 22.327C39.1607 22.161 40.6547 21.912 42.038 21.58C43.4213 21.1927 44.445 20.6947 45.109 20.086C45.3303 19.8093 45.441 19.588 45.441 19.422C45.4963 19.256 45.524 19.1177 45.524 19.007C45.524 18.343 45.607 18.011 45.773 18.011C45.939 18.011 46.105 18.26 46.271 18.758C46.3263 18.924 46.354 19.173 46.354 19.505C46.354 20.4457 45.856 21.2203 44.86 21.829C43.864 22.4377 42.5913 22.908 41.042 23.24C39.548 23.572 38.0263 23.821 36.477 23.987C34.9277 24.0977 33.572 24.153 32.41 24.153C30.0307 24.153 27.596 24.236 25.106 24.402C22.6713 24.5127 20.4027 24.7893 18.3 25.232C16.2527 25.6747 14.5927 26.3387 13.32 27.224C12.1027 28.054 11.494 29.216 11.494 30.71C11.494 32.5913 12.2963 34.0853 13.901 35.192C15.5057 36.2987 17.6637 36.852 20.375 36.852C21.4817 36.852 22.6437 36.769 23.861 36.603C25.0783 36.3817 26.102 36.022 26.932 35.524C27.8173 35.026 28.26 34.362 28.26 33.532C28.26 32.0933 27.0703 30.9867 24.691 30.212C24.3037 30.212 24.11 30.046 24.11 29.714C24.11 29.3267 24.4143 29.216 25.023 29.382C26.6277 29.9353 27.845 30.71 28.675 31.706C29.505 32.6467 29.92 33.9193 29.92 35.524C29.92 37.1287 29.3667 38.429 28.26 39.425C27.2087 40.3657 25.9637 41.0573 24.525 41.5C23.0863 41.9427 21.8137 42.164 20.707 42.164ZM28.011 116.117C24.857 116.117 22.5053 114.983 20.956 112.714C19.4067 110.501 18.632 107.762 18.632 104.497C18.632 101.343 19.3237 97.9677 20.707 94.371C22.1457 90.8297 24.2207 87.6203 26.932 84.743C29.2007 82.3083 31.6907 80.3717 34.402 78.933C37.1687 77.439 39.6863 76.692 41.955 76.692C43.781 76.692 45.3027 77.3007 46.52 78.518C47.7927 79.68 48.429 81.5613 48.429 84.162C48.429 85.988 48.1247 87.897 47.516 89.889C46.9073 91.881 46.2433 93.624 45.524 95.118C43.4213 99.434 41.3187 102.533 39.216 104.414C37.1687 106.351 35.398 107.319 33.904 107.319C32.7973 107.319 31.912 106.849 31.248 105.908C30.584 104.967 30.252 103.639 30.252 101.924C30.252 100.209 30.584 98.2997 31.248 96.197C31.9673 94.0943 32.908 92.1023 34.07 90.221C35.232 88.395 36.5047 86.901 37.888 85.739C39.3267 84.6323 40.7377 84.162 42.121 84.328C42.8403 84.494 43.3937 84.743 43.781 85.075C43.8917 85.2963 43.947 85.407 43.947 85.407C43.947 85.5177 43.8363 85.573 43.615 85.573C43.449 85.573 43.2553 85.5453 43.034 85.49C42.9787 85.2687 42.619 85.158 41.955 85.158C40.793 85.158 39.6587 85.6007 38.552 86.486C37.5007 87.3713 36.56 88.5057 35.73 89.889C34.9553 91.3277 34.319 92.8217 33.821 94.371C33.3783 95.9203 33.157 97.359 33.157 98.687C33.157 100.181 33.4613 101.343 34.07 102.173C34.6787 103.003 35.4533 103.418 36.394 103.418C37.556 103.418 38.884 102.726 40.378 101.343C41.9273 100.015 43.4213 97.8847 44.86 94.952C45.6347 93.4027 46.2433 91.8257 46.686 90.221C47.184 88.6163 47.433 87.1777 47.433 85.905C47.433 83.8023 47.018 82.3083 46.188 81.423C45.4133 80.5377 44.3897 80.095 43.117 80.095C41.8997 80.095 40.544 80.4547 39.05 81.174C37.6113 81.8933 36.2003 82.8617 34.817 84.079C33.4337 85.2963 32.244 86.652 31.248 88.146C29.9753 90.138 28.7857 92.379 27.679 94.869C26.6277 97.359 25.77 99.7937 25.106 102.173C24.4973 104.608 24.193 106.766 24.193 108.647C24.193 110.307 24.4697 111.635 25.023 112.631C25.6317 113.682 26.6 114.208 27.928 114.208C29.4773 114.208 31.1373 113.738 32.908 112.797C34.734 111.856 36.5877 110.611 38.469 109.062C40.3503 107.513 42.1487 105.797 43.864 103.916C45.5793 102.035 47.101 100.153 48.429 98.272C51.1957 94.3433 53.4643 90.553 55.235 86.901C57.061 83.249 58.6933 79.4863 60.132 75.613C61.128 72.957 62.0687 69.9967 62.954 66.732C63.8393 63.412 64.5587 60.0367 65.112 56.606C65.6653 53.12 65.942 49.8277 65.942 46.729C65.942 45.2903 65.859 43.907 65.693 42.579C65.5823 41.251 65.361 40.0337 65.029 38.927C63.7563 41.9703 62.0687 45.2073 59.966 48.638C57.8633 52.0133 55.5117 55.3333 52.911 58.598C50.3657 61.8073 47.7373 64.7123 45.026 67.313C42.37 69.9137 39.7693 71.9887 37.224 73.538C34.734 75.0873 32.493 75.862 30.501 75.862C28.2877 75.862 26.6 75.1427 25.438 73.704C24.3313 72.21 23.778 70.218 23.778 67.728C23.778 64.408 24.276 61.005 25.272 57.519C26.3233 54.033 27.6237 50.5193 29.173 46.978C30.7777 43.3813 32.41 39.757 34.07 36.105C35.7853 32.3977 37.307 28.6903 38.635 24.983L43.2 30.793C42.7573 31.6783 42.0103 33.117 40.959 35.109C39.9077 37.101 38.7457 39.3973 37.473 41.998C36.2557 44.5987 35.0383 47.3377 33.821 50.215C32.659 53.037 31.6907 55.8313 30.916 58.598C30.1967 61.3093 29.837 63.7717 29.837 65.985C29.837 67.5343 30.1137 68.89 30.667 70.052C31.2203 71.214 32.1057 71.795 33.323 71.795C34.3743 71.795 35.7023 71.3523 37.307 70.467C38.967 69.5263 40.6823 68.3643 42.453 66.981C44.2237 65.5423 45.8837 64.0483 47.433 62.499C48.9823 60.9497 50.2273 59.5663 51.168 58.349C52.828 56.025 54.488 53.618 56.148 51.128C57.808 48.638 59.302 46.1203 60.63 43.575C62.0133 40.9743 63.037 38.4567 63.701 36.022C62.9817 35.4133 62.29 34.528 61.626 33.366C60.962 32.204 60.4087 31.0143 59.966 29.797C59.5787 28.5243 59.385 27.473 59.385 26.643C59.385 25.7577 59.717 25.0107 60.381 24.402C61.045 23.738 61.792 23.406 62.622 23.406C64.0053 23.406 65.1397 24.0147 66.025 25.232C66.9657 26.394 67.436 27.7773 67.436 29.382C67.436 30.4333 67.27 31.623 66.938 32.951C66.6613 34.2237 66.274 35.607 65.776 37.101C67.2147 39.4803 68.2383 42.081 68.847 44.903C69.4557 47.6697 69.76 50.5193 69.76 53.452C69.76 57.7127 69.262 62.0287 68.266 66.4C67.27 70.716 66.1357 74.7553 64.863 78.518C63.867 81.506 62.6497 84.4663 61.211 87.399C59.7723 90.3317 58.2507 93.0707 56.646 95.616C55.0967 98.2167 53.5473 100.458 51.998 102.339C49.7847 104.94 47.5437 107.264 45.275 109.311C43.0617 111.358 40.5717 112.963 37.805 114.125C35.0383 115.342 31.7737 116.006 28.011 116.117Z" fill="#05FDD8"/>
<path d="M23.707 42.164C22.047 42.164 20.4147 41.7767 18.81 41.002C17.2607 40.172 15.9603 38.927 14.909 37.267C13.913 35.5517 13.415 33.366 13.415 30.71C13.415 28.6627 14.328 27.058 16.154 25.896C17.98 24.6787 20.387 23.821 23.375 23.323C26.4183 22.825 29.6553 22.6313 33.086 22.742C33.75 22.742 34.7737 22.7143 36.157 22.659C37.5403 22.6037 39.0067 22.493 40.556 22.327C42.1607 22.161 43.6547 21.912 45.038 21.58C46.4213 21.1927 47.445 20.6947 48.109 20.086C48.3303 19.8093 48.441 19.588 48.441 19.422C48.4963 19.256 48.524 19.1177 48.524 19.007C48.524 18.343 48.607 18.011 48.773 18.011C48.939 18.011 49.105 18.26 49.271 18.758C49.3263 18.924 49.354 19.173 49.354 19.505C49.354 20.4457 48.856 21.2203 47.86 21.829C46.864 22.4377 45.5913 22.908 44.042 23.24C42.548 23.572 41.0263 23.821 39.477 23.987C37.9277 24.0977 36.572 24.153 35.41 24.153C33.0307 24.153 30.596 24.236 28.106 24.402C25.6713 24.5127 23.4027 24.7893 21.3 25.232C19.2527 25.6747 17.5927 26.3387 16.32 27.224C15.1027 28.054 14.494 29.216 14.494 30.71C14.494 32.5913 15.2963 34.0853 16.901 35.192C18.5057 36.2987 20.6637 36.852 23.375 36.852C24.4817 36.852 25.6437 36.769 26.861 36.603C28.0783 36.3817 29.102 36.022 29.932 35.524C30.8173 35.026 31.26 34.362 31.26 33.532C31.26 32.0933 30.0703 30.9867 27.691 30.212C27.3037 30.212 27.11 30.046 27.11 29.714C27.11 29.3267 27.4143 29.216 28.023 29.382C29.6277 29.9353 30.845 30.71 31.675 31.706C32.505 32.6467 32.92 33.9193 32.92 35.524C32.92 37.1287 32.3667 38.429 31.26 39.425C30.2087 40.3657 28.9637 41.0573 27.525 41.5C26.0863 41.9427 24.8137 42.164 23.707 42.164ZM31.011 116.117C27.857 116.117 25.5053 114.983 23.956 112.714C22.4067 110.501 21.632 107.762 21.632 104.497C21.632 101.343 22.3237 97.9677 23.707 94.371C25.1457 90.8297 27.2207 87.6203 29.932 84.743C32.2007 82.3083 34.6907 80.3717 37.402 78.933C40.1687 77.439 42.6863 76.692 44.955 76.692C46.781 76.692 48.3027 77.3007 49.52 78.518C50.7927 79.68 51.429 81.5613 51.429 84.162C51.429 85.988 51.1247 87.897 50.516 89.889C49.9073 91.881 49.2433 93.624 48.524 95.118C46.4213 99.434 44.3187 102.533 42.216 104.414C40.1687 106.351 38.398 107.319 36.904 107.319C35.7973 107.319 34.912 106.849 34.248 105.908C33.584 104.967 33.252 103.639 33.252 101.924C33.252 100.209 33.584 98.2997 34.248 96.197C34.9673 94.0943 35.908 92.1023 37.07 90.221C38.232 88.395 39.5047 86.901 40.888 85.739C42.3267 84.6323 43.7377 84.162 45.121 84.328C45.8403 84.494 46.3937 84.743 46.781 85.075C46.8917 85.2963 46.947 85.407 46.947 85.407C46.947 85.5177 46.8363 85.573 46.615 85.573C46.449 85.573 46.2553 85.5453 46.034 85.49C45.9787 85.2687 45.619 85.158 44.955 85.158C43.793 85.158 42.6587 85.6007 41.552 86.486C40.5007 87.3713 39.56 88.5057 38.73 89.889C37.9553 91.3277 37.319 92.8217 36.821 94.371C36.3783 95.9203 36.157 97.359 36.157 98.687C36.157 100.181 36.4613 101.343 37.07 102.173C37.6787 103.003 38.4533 103.418 39.394 103.418C40.556 103.418 41.884 102.726 43.378 101.343C44.9273 100.015 46.4213 97.8847 47.86 94.952C48.6347 93.4027 49.2433 91.8257 49.686 90.221C50.184 88.6163 50.433 87.1777 50.433 85.905C50.433 83.8023 50.018 82.3083 49.188 81.423C48.4133 80.5377 47.3897 80.095 46.117 80.095C44.8997 80.095 43.544 80.4547 42.05 81.174C40.6113 81.8933 39.2003 82.8617 37.817 84.079C36.4337 85.2963 35.244 86.652 34.248 88.146C32.9753 90.138 31.7857 92.379 30.679 94.869C29.6277 97.359 28.77 99.7937 28.106 102.173C27.4973 104.608 27.193 106.766 27.193 108.647C27.193 110.307 27.4697 111.635 28.023 112.631C28.6317 113.682 29.6 114.208 30.928 114.208C32.4773 114.208 34.1373 113.738 35.908 112.797C37.734 111.856 39.5877 110.611 41.469 109.062C43.3503 107.513 45.1487 105.797 46.864 103.916C48.5793 102.035 50.101 100.153 51.429 98.272C54.1957 94.3433 56.4643 90.553 58.235 86.901C60.061 83.249 61.6933 79.4863 63.132 75.613C64.128 72.957 65.0687 69.9967 65.954 66.732C66.8393 63.412 67.5587 60.0367 68.112 56.606C68.6653 53.12 68.942 49.8277 68.942 46.729C68.942 45.2903 68.859 43.907 68.693 42.579C68.5823 41.251 68.361 40.0337 68.029 38.927C66.7563 41.9703 65.0687 45.2073 62.966 48.638C60.8633 52.0133 58.5117 55.3333 55.911 58.598C53.3657 61.8073 50.7373 64.7123 48.026 67.313C45.37 69.9137 42.7693 71.9887 40.224 73.538C37.734 75.0873 35.493 75.862 33.501 75.862C31.2877 75.862 29.6 75.1427 28.438 73.704C27.3313 72.21 26.778 70.218 26.778 67.728C26.778 64.408 27.276 61.005 28.272 57.519C29.3233 54.033 30.6237 50.5193 32.173 46.978C33.7777 43.3813 35.41 39.757 37.07 36.105C38.7853 32.3977 40.307 28.6903 41.635 24.983L46.2 30.793C45.7573 31.6783 45.0103 33.117 43.959 35.109C42.9077 37.101 41.7457 39.3973 40.473 41.998C39.2557 44.5987 38.0383 47.3377 36.821 50.215C35.659 53.037 34.6907 55.8313 33.916 58.598C33.1967 61.3093 32.837 63.7717 32.837 65.985C32.837 67.5343 33.1137 68.89 33.667 70.052C34.2203 71.214 35.1057 71.795 36.323 71.795C37.3743 71.795 38.7023 71.3523 40.307 70.467C41.967 69.5263 43.6823 68.3643 45.453 66.981C47.2237 65.5423 48.8837 64.0483 50.433 62.499C51.9823 60.9497 53.2273 59.5663 54.168 58.349C55.828 56.025 57.488 53.618 59.148 51.128C60.808 48.638 62.302 46.1203 63.63 43.575C65.0133 40.9743 66.037 38.4567 66.701 36.022C65.9817 35.4133 65.29 34.528 64.626 33.366C63.962 32.204 63.4087 31.0143 62.966 29.797C62.5787 28.5243 62.385 27.473 62.385 26.643C62.385 25.7577 62.717 25.0107 63.381 24.402C64.045 23.738 64.792 23.406 65.622 23.406C67.0053 23.406 68.1397 24.0147 69.025 25.232C69.9657 26.394 70.436 27.7773 70.436 29.382C70.436 30.4333 70.27 31.623 69.938 32.951C69.6613 34.2237 69.274 35.607 68.776 37.101C70.2147 39.4803 71.2383 42.081 71.847 44.903C72.4557 47.6697 72.76 50.5193 72.76 53.452C72.76 57.7127 72.262 62.0287 71.266 66.4C70.27 70.716 69.1357 74.7553 67.863 78.518C66.867 81.506 65.6497 84.4663 64.211 87.399C62.7723 90.3317 61.2507 93.0707 59.646 95.616C58.0967 98.2167 56.5473 100.458 54.998 102.339C52.7847 104.94 50.5437 107.264 48.275 109.311C46.0617 111.358 43.5717 112.963 40.805 114.125C38.0383 115.342 34.7737 116.006 31.011 116.117Z" fill="#FD2155"/>
<path d="M9.34961 171.167L9.25732 171.154C9.17236 170.615 9.0874 170.112 9.00244 169.646C8.92041 169.181 8.83691 168.741 8.75195 168.328C8.66992 167.915 8.58789 167.522 8.50586 167.15C8.42676 166.778 8.34912 166.418 8.27295 166.069C8.16455 165.583 8.06787 165.135 7.98291 164.725C7.89795 164.312 7.80859 163.916 7.71484 163.538H7.68408C7.56689 163.963 7.44824 164.373 7.32812 164.769C7.20801 165.161 7.08496 165.551 6.95898 165.938C6.83301 166.321 6.70117 166.709 6.56348 167.102C6.42578 167.492 6.28076 167.896 6.12842 168.315C5.97607 168.734 5.81348 169.173 5.64062 169.633C5.4707 170.093 5.28906 170.584 5.0957 171.105L4.33984 171.167L4.24756 171.154C3.78467 168.813 3.38623 166.915 3.05225 165.458C2.72119 164 2.45752 162.98 2.26123 162.4C2.2085 162.242 2.15283 162.108 2.09424 162C2.03564 161.889 1.9668 161.798 1.8877 161.728C1.80859 161.657 1.71484 161.606 1.60645 161.574C1.50098 161.542 1.37354 161.525 1.22412 161.525C1.12744 161.525 1.02197 161.533 0.907715 161.547C0.790527 161.559 0.661621 161.577 0.520996 161.6L0.472656 161.209C0.926758 161.098 1.30322 161.013 1.60205 160.954C1.90381 160.893 2.15283 160.862 2.34912 160.862C2.50439 160.862 2.63184 160.884 2.73145 160.928C2.83398 160.969 2.92041 161.036 2.99072 161.13C3.06104 161.224 3.12256 161.345 3.17529 161.495C3.22803 161.644 3.28369 161.826 3.34229 162.04C3.42725 162.344 3.52832 162.731 3.64551 163.2C3.76562 163.666 3.89746 164.216 4.04102 164.852C4.18457 165.488 4.33984 166.208 4.50684 167.014C4.67383 167.82 4.84814 168.715 5.02979 169.699H5.06055C5.20703 169.301 5.35791 168.879 5.51318 168.434C5.67139 167.988 5.83105 167.53 5.99219 167.058C6.15332 166.586 6.31445 166.106 6.47559 165.617C6.63672 165.127 6.79492 164.64 6.9502 164.153C7.10547 163.664 7.25488 163.181 7.39844 162.703C7.54492 162.226 7.68262 161.763 7.81152 161.314C7.82617 161.262 7.86133 161.224 7.91699 161.2C7.97266 161.177 8.03271 161.165 8.09717 161.165C8.16162 161.165 8.22021 161.174 8.27295 161.191C8.34912 161.484 8.43555 161.833 8.53223 162.237C8.62891 162.639 8.72998 163.075 8.83545 163.547C8.94092 164.016 9.04932 164.511 9.16064 165.032C9.2749 165.551 9.38623 166.077 9.49463 166.61C9.60596 167.143 9.71289 167.673 9.81543 168.201C9.91797 168.728 10.0132 169.232 10.1011 169.712H10.123C10.334 169.273 10.5435 168.817 10.7515 168.346C10.9624 167.871 11.1631 167.398 11.3535 166.926C11.5469 166.455 11.7256 165.99 11.8896 165.533C12.0566 165.076 12.2002 164.644 12.3203 164.237C12.4434 163.83 12.5386 163.455 12.606 163.112C12.6763 162.769 12.7114 162.475 12.7114 162.229C12.7114 162.085 12.6982 161.94 12.6719 161.793C12.6484 161.647 12.6118 161.509 12.562 161.38C12.5122 161.251 12.4478 161.134 12.3687 161.029C12.2925 160.923 12.2017 160.84 12.0962 160.778L12.1138 160.695C12.1724 160.686 12.231 160.679 12.2896 160.673C12.3481 160.667 12.4067 160.664 12.4653 160.664C12.6294 160.664 12.7861 160.685 12.9355 160.726C13.085 160.767 13.2168 160.831 13.3311 160.919C13.4453 161.007 13.5361 161.121 13.6035 161.262C13.6709 161.402 13.7046 161.571 13.7046 161.767C13.7046 161.917 13.6782 162.114 13.6255 162.36C13.5728 162.604 13.4966 162.885 13.397 163.204C13.3003 163.523 13.1831 163.875 13.0454 164.259C12.9077 164.64 12.7539 165.044 12.584 165.472C12.417 165.899 12.2354 166.346 12.0391 166.812C11.8457 167.275 11.6421 167.747 11.4282 168.227C11.2173 168.705 10.999 169.187 10.7734 169.673C10.5508 170.156 10.3252 170.634 10.0967 171.105L9.34961 171.167ZM17.9146 169.638C17.9321 169.646 17.9541 169.66 17.9805 169.677C18.0098 169.692 18.0361 169.709 18.0596 169.73C18.083 169.748 18.1035 169.768 18.1211 169.792C18.1387 169.812 18.1475 169.833 18.1475 169.853C18.1475 169.865 18.1431 169.876 18.1343 169.888C17.9702 170.117 17.793 170.316 17.6025 170.486C17.415 170.653 17.2188 170.793 17.0137 170.908C16.8115 171.019 16.605 171.101 16.394 171.154C16.1831 171.209 15.9751 171.237 15.77 171.237C15.4185 171.237 15.0962 171.166 14.8032 171.022C14.5103 170.878 14.2583 170.682 14.0474 170.433C13.8364 170.184 13.6709 169.893 13.5508 169.559C13.4336 169.222 13.375 168.861 13.375 168.478C13.375 168.164 13.4087 167.851 13.4761 167.537C13.5464 167.224 13.646 166.925 13.7749 166.641C13.9067 166.356 14.0664 166.093 14.2539 165.85C14.4414 165.604 14.6538 165.391 14.8911 165.212C15.1313 165.031 15.3936 164.889 15.6777 164.786C15.9648 164.684 16.2725 164.632 16.6006 164.632C16.8174 164.632 17.0239 164.662 17.2202 164.72C17.4165 164.779 17.5879 164.864 17.7344 164.975C17.8838 165.083 18.0024 165.218 18.0903 165.379C18.1782 165.541 18.2222 165.724 18.2222 165.929C18.2222 166.228 18.124 166.488 17.9277 166.711C17.7344 166.934 17.4663 167.123 17.1235 167.278C16.7808 167.433 16.3765 167.559 15.9106 167.656C15.4478 167.75 14.9468 167.82 14.4077 167.867V167.941C14.4077 168.316 14.4546 168.659 14.5483 168.97C14.645 169.28 14.7769 169.547 14.9438 169.77C15.1108 169.989 15.3071 170.161 15.5327 170.284C15.7583 170.407 16.0015 170.468 16.2622 170.468C16.5259 170.468 16.7954 170.404 17.0708 170.275C17.3491 170.143 17.6304 169.931 17.9146 169.638ZM17.0884 166.109C17.0884 165.974 17.0649 165.848 17.0181 165.731C16.9741 165.614 16.9111 165.513 16.8291 165.428C16.75 165.34 16.6548 165.271 16.5435 165.221C16.4321 165.171 16.312 165.146 16.1831 165.146C15.9927 165.146 15.8198 165.18 15.6646 165.248C15.5093 165.315 15.3701 165.407 15.2471 165.524C15.124 165.639 15.0156 165.773 14.9219 165.929C14.8281 166.081 14.7476 166.244 14.6802 166.417C14.6157 166.589 14.563 166.767 14.522 166.948C14.481 167.13 14.4517 167.307 14.4341 167.48C14.8501 167.451 15.2222 167.401 15.5503 167.331C15.8813 167.257 16.1597 167.165 16.3853 167.054C16.6138 166.939 16.7881 166.805 16.9082 166.649C17.0283 166.491 17.0884 166.311 17.0884 166.109ZM21.1885 159.205C21.1328 159.674 21.0771 160.157 21.0215 160.655C20.9658 161.153 20.9116 161.657 20.8589 162.167C20.8091 162.677 20.7593 163.189 20.7095 163.705C20.6626 164.221 20.6187 164.73 20.5776 165.234C20.5396 165.735 20.5059 166.228 20.4766 166.711C20.4473 167.191 20.4238 167.653 20.4062 168.095L20.4546 168.1C20.686 167.531 20.9351 167.03 21.2017 166.597C21.4683 166.163 21.7393 165.8 22.0146 165.507C22.29 165.214 22.5625 164.993 22.832 164.843C23.1045 164.694 23.3608 164.619 23.6011 164.619C23.8032 164.619 23.9819 164.657 24.1372 164.733C24.2925 164.807 24.4272 164.906 24.5415 165.032C24.6558 165.155 24.751 165.299 24.8271 165.463C24.9033 165.624 24.9648 165.794 25.0117 165.973C25.0586 166.148 25.0908 166.327 25.1084 166.509C25.1289 166.69 25.1392 166.86 25.1392 167.019C25.1392 167.455 25.0952 167.864 25.0073 168.245C24.9224 168.623 24.8037 168.968 24.6514 169.282C24.499 169.592 24.3188 169.869 24.1108 170.112C23.9028 170.355 23.6772 170.561 23.4341 170.728C23.1909 170.895 22.9346 171.021 22.665 171.105C22.3955 171.193 22.1245 171.237 21.8521 171.237C21.6704 171.237 21.4873 171.217 21.3027 171.176C21.1211 171.135 20.9424 171.072 20.7666 170.987C20.5938 170.902 20.4297 170.793 20.2744 170.662C20.1191 170.527 19.98 170.369 19.8569 170.187C19.7544 170.445 19.6504 170.656 19.5449 170.82C19.4395 170.984 19.3413 171.116 19.2505 171.215L19.022 171.158C19.1831 170.71 19.3018 170.172 19.3779 169.545C19.4541 168.916 19.5127 168.204 19.5537 167.41C19.5684 167.07 19.5859 166.683 19.6064 166.25C19.6299 165.816 19.6533 165.359 19.6768 164.878C19.7002 164.398 19.7251 163.907 19.7515 163.406C19.7778 162.902 19.8042 162.413 19.8306 161.938C19.8569 161.464 19.8818 161.014 19.9053 160.589C19.9287 160.165 19.9507 159.788 19.9712 159.46C19.9741 159.39 19.9961 159.33 20.0371 159.28C20.0781 159.227 20.1294 159.186 20.1909 159.157C20.2524 159.125 20.3213 159.101 20.3975 159.086C20.4766 159.072 20.5542 159.064 20.6304 159.064C20.8091 159.064 20.9951 159.111 21.1885 159.205ZM24.0669 167.445C24.0669 167.246 24.0508 167.041 24.0186 166.83C23.9893 166.619 23.9409 166.428 23.8735 166.258C23.8091 166.085 23.7227 165.945 23.6143 165.836C23.5088 165.725 23.3799 165.669 23.2275 165.669C23.0488 165.669 22.8716 165.715 22.6958 165.806C22.5229 165.894 22.3545 166.014 22.1904 166.166C22.0293 166.315 21.874 166.49 21.7246 166.689C21.5752 166.885 21.4346 167.092 21.3027 167.309C21.1738 167.525 21.0566 167.745 20.9512 167.968C20.8486 168.188 20.7593 168.397 20.6831 168.596C20.6099 168.795 20.5527 168.977 20.5117 169.141C20.4707 169.302 20.4502 169.431 20.4502 169.528C20.4941 169.709 20.5615 169.875 20.6523 170.024C20.7461 170.171 20.8574 170.297 20.9863 170.402C21.1182 170.505 21.2632 170.584 21.4214 170.64C21.5825 170.695 21.7524 170.723 21.9312 170.723C22.2241 170.723 22.4995 170.65 22.7573 170.503C23.0181 170.354 23.2451 170.139 23.4385 169.857C23.6318 169.576 23.7842 169.233 23.8955 168.829C24.0098 168.422 24.0669 167.96 24.0669 167.445ZM31.5947 161.394C31.5918 161.54 31.5874 161.758 31.5815 162.048C31.5757 162.338 31.5684 162.677 31.5596 163.063C31.5508 163.447 31.5391 163.868 31.5244 164.325C31.5127 164.779 31.4995 165.245 31.4849 165.722C31.4702 166.197 31.4541 166.67 31.4365 167.142C31.4189 167.613 31.4014 168.059 31.3838 168.478C31.3662 168.896 31.3472 169.277 31.3267 169.62C31.3091 169.96 31.2915 170.237 31.2739 170.451C31.564 170.527 31.8306 170.578 32.0737 170.604C32.3198 170.628 32.5615 170.64 32.7988 170.64C33.291 170.64 33.7305 170.578 34.1172 170.455C34.5068 170.332 34.8481 170.161 35.1411 169.941C35.437 169.718 35.6875 169.455 35.8926 169.15C36.1006 168.845 36.269 168.511 36.3979 168.148C36.5298 167.785 36.625 167.398 36.6836 166.988C36.7451 166.578 36.7759 166.157 36.7759 165.727C36.7759 165.082 36.7041 164.492 36.5605 163.956C36.4199 163.419 36.1885 162.958 35.8662 162.571C35.5469 162.185 35.1294 161.884 34.6138 161.67C34.0981 161.454 33.4683 161.345 32.7241 161.345C32.5396 161.345 32.3535 161.35 32.166 161.358C31.9785 161.367 31.7881 161.379 31.5947 161.394ZM28.9448 161.249C29.2554 161.19 29.5747 161.134 29.9028 161.082C30.231 161.026 30.562 160.978 30.896 160.937C31.23 160.896 31.564 160.863 31.8979 160.84C32.2349 160.813 32.5674 160.8 32.8955 160.8C33.3525 160.8 33.7949 160.83 34.2227 160.888C34.6533 160.944 35.0576 161.041 35.4355 161.178C35.8164 161.313 36.165 161.495 36.4814 161.723C36.7979 161.949 37.0688 162.231 37.2944 162.571C37.5229 162.908 37.7002 163.308 37.8262 163.771C37.9521 164.234 38.0151 164.769 38.0151 165.375C38.0151 165.92 37.9609 166.443 37.8525 166.944C37.7441 167.442 37.5859 167.906 37.3779 168.337C37.1699 168.768 36.915 169.159 36.6133 169.51C36.3145 169.862 35.9717 170.164 35.585 170.416C35.2012 170.665 34.7764 170.858 34.3105 170.996C33.8477 171.13 33.3496 171.198 32.8164 171.198C32.541 171.198 32.2612 171.179 31.9771 171.141C31.6929 171.103 31.397 171.044 31.0894 170.965L30.2192 171.07L30.1401 171.062C30.1606 170.874 30.1826 170.626 30.2061 170.319C30.2295 170.008 30.2515 169.648 30.272 169.238C30.2954 168.828 30.3174 168.372 30.3379 167.871C30.3584 167.367 30.376 166.827 30.3906 166.25C30.4082 165.669 30.4214 165.059 30.4302 164.417C30.439 163.775 30.4434 163.109 30.4434 162.417C30.4434 162.277 30.4375 162.154 30.4258 162.048C30.4141 161.943 30.3833 161.855 30.3335 161.785C30.2866 161.714 30.2148 161.662 30.1182 161.626C30.0244 161.591 29.8955 161.574 29.7314 161.574C29.5381 161.574 29.2905 161.596 28.9888 161.64L28.9448 161.249ZM43.5786 169.638C43.5962 169.646 43.6182 169.66 43.6445 169.677C43.6738 169.692 43.7002 169.709 43.7236 169.73C43.7471 169.748 43.7676 169.768 43.7852 169.792C43.8027 169.812 43.8115 169.833 43.8115 169.853C43.8115 169.865 43.8071 169.876 43.7983 169.888C43.6343 170.117 43.457 170.316 43.2666 170.486C43.0791 170.653 42.8828 170.793 42.6777 170.908C42.4756 171.019 42.269 171.101 42.0581 171.154C41.8472 171.209 41.6392 171.237 41.4341 171.237C41.0825 171.237 40.7603 171.166 40.4673 171.022C40.1743 170.878 39.9224 170.682 39.7114 170.433C39.5005 170.184 39.335 169.893 39.2148 169.559C39.0977 169.222 39.0391 168.861 39.0391 168.478C39.0391 168.164 39.0728 167.851 39.1401 167.537C39.2104 167.224 39.3101 166.925 39.439 166.641C39.5708 166.356 39.7305 166.093 39.918 165.85C40.1055 165.604 40.3179 165.391 40.5552 165.212C40.7954 165.031 41.0576 164.889 41.3418 164.786C41.6289 164.684 41.9365 164.632 42.2646 164.632C42.4814 164.632 42.688 164.662 42.8843 164.72C43.0806 164.779 43.252 164.864 43.3984 164.975C43.5479 165.083 43.6665 165.218 43.7544 165.379C43.8423 165.541 43.8862 165.724 43.8862 165.929C43.8862 166.228 43.7881 166.488 43.5918 166.711C43.3984 166.934 43.1304 167.123 42.7876 167.278C42.4448 167.433 42.0405 167.559 41.5747 167.656C41.1118 167.75 40.6108 167.82 40.0718 167.867V167.941C40.0718 168.316 40.1187 168.659 40.2124 168.97C40.3091 169.28 40.4409 169.547 40.6079 169.77C40.7749 169.989 40.9712 170.161 41.1968 170.284C41.4224 170.407 41.6655 170.468 41.9263 170.468C42.1899 170.468 42.4595 170.404 42.7349 170.275C43.0132 170.143 43.2944 169.931 43.5786 169.638ZM42.7524 166.109C42.7524 165.974 42.729 165.848 42.6821 165.731C42.6382 165.614 42.5752 165.513 42.4932 165.428C42.4141 165.34 42.3188 165.271 42.2075 165.221C42.0962 165.171 41.9761 165.146 41.8472 165.146C41.6567 165.146 41.4839 165.18 41.3286 165.248C41.1733 165.315 41.0342 165.407 40.9111 165.524C40.7881 165.639 40.6797 165.773 40.5859 165.929C40.4922 166.081 40.4116 166.244 40.3442 166.417C40.2798 166.589 40.2271 166.767 40.186 166.948C40.145 167.13 40.1157 167.307 40.0981 167.48C40.5142 167.451 40.8862 167.401 41.2144 167.331C41.5454 167.257 41.8237 167.165 42.0493 167.054C42.2778 166.939 42.4521 166.805 42.5723 166.649C42.6924 166.491 42.7524 166.311 42.7524 166.109ZM46.4526 171.154C46.4146 170.873 46.3691 170.578 46.3164 170.271C46.2637 169.96 46.2065 169.648 46.145 169.334C46.0864 169.018 46.0234 168.706 45.9561 168.398C45.8916 168.091 45.8257 167.798 45.7583 167.52C45.6938 167.241 45.6309 166.985 45.5693 166.75C45.5078 166.516 45.4507 166.314 45.3979 166.144C45.3423 165.971 45.2896 165.831 45.2397 165.722C45.1899 165.611 45.1372 165.524 45.0815 165.463C45.0288 165.398 44.9702 165.354 44.9058 165.331C44.8413 165.308 44.7681 165.296 44.686 165.296C44.5923 165.296 44.4912 165.306 44.3828 165.327C44.2773 165.347 44.1499 165.375 44.0005 165.41L43.9346 165.094C44.1104 165.029 44.2817 164.971 44.4487 164.918C44.6187 164.862 44.7754 164.815 44.9189 164.777C45.0625 164.739 45.1899 164.71 45.3013 164.689C45.4126 164.669 45.5005 164.659 45.5649 164.659C45.644 164.659 45.7158 164.673 45.7803 164.703C45.8477 164.729 45.9121 164.776 45.9736 164.843C46.0352 164.911 46.0938 165.003 46.1494 165.12C46.2051 165.234 46.2607 165.379 46.3164 165.555C46.3545 165.672 46.3984 165.825 46.4482 166.012C46.501 166.197 46.5552 166.408 46.6108 166.645C46.6665 166.882 46.7236 167.14 46.7822 167.418C46.8438 167.694 46.9023 167.979 46.958 168.275C47.0137 168.571 47.0649 168.873 47.1118 169.181C47.1616 169.485 47.2041 169.786 47.2393 170.082C47.3857 169.868 47.5322 169.646 47.6787 169.418C47.8281 169.189 47.9702 168.958 48.105 168.724C48.2427 168.489 48.3701 168.253 48.4873 168.016C48.6045 167.776 48.707 167.539 48.7949 167.304C48.8828 167.07 48.9517 166.84 49.0015 166.614C49.0513 166.389 49.0762 166.17 49.0762 165.959C49.0762 165.696 49.0293 165.448 48.9355 165.217C48.8447 164.985 48.688 164.782 48.4653 164.606L48.5137 164.5C48.5664 164.495 48.6177 164.49 48.6675 164.487C48.7173 164.484 48.7656 164.483 48.8125 164.483C49.2051 164.483 49.501 164.575 49.7002 164.76C49.8994 164.944 49.999 165.201 49.999 165.529C49.999 165.778 49.9463 166.062 49.8408 166.381C49.7354 166.698 49.5962 167.03 49.4233 167.379C49.2505 167.728 49.0542 168.083 48.8345 168.447C48.6147 168.807 48.3906 169.156 48.1621 169.493C47.9336 169.83 47.7109 170.146 47.4941 170.442C47.2773 170.735 47.0854 170.988 46.9185 171.202L46.4526 171.154ZM55.0571 169.638C55.0747 169.646 55.0967 169.66 55.123 169.677C55.1523 169.692 55.1787 169.709 55.2021 169.73C55.2256 169.748 55.2461 169.768 55.2637 169.792C55.2812 169.812 55.29 169.833 55.29 169.853C55.29 169.865 55.2856 169.876 55.2769 169.888C55.1128 170.117 54.9355 170.316 54.7451 170.486C54.5576 170.653 54.3613 170.793 54.1562 170.908C53.9541 171.019 53.7476 171.101 53.5366 171.154C53.3257 171.209 53.1177 171.237 52.9126 171.237C52.561 171.237 52.2388 171.166 51.9458 171.022C51.6528 170.878 51.4009 170.682 51.1899 170.433C50.979 170.184 50.8135 169.893 50.6934 169.559C50.5762 169.222 50.5176 168.861 50.5176 168.478C50.5176 168.164 50.5513 167.851 50.6187 167.537C50.689 167.224 50.7886 166.925 50.9175 166.641C51.0493 166.356 51.209 166.093 51.3965 165.85C51.584 165.604 51.7964 165.391 52.0337 165.212C52.2739 165.031 52.5361 164.889 52.8203 164.786C53.1074 164.684 53.415 164.632 53.7432 164.632C53.96 164.632 54.1665 164.662 54.3628 164.72C54.5591 164.779 54.7305 164.864 54.877 164.975C55.0264 165.083 55.145 165.218 55.2329 165.379C55.3208 165.541 55.3647 165.724 55.3647 165.929C55.3647 166.228 55.2666 166.488 55.0703 166.711C54.877 166.934 54.6089 167.123 54.2661 167.278C53.9233 167.433 53.519 167.559 53.0532 167.656C52.5903 167.75 52.0894 167.82 51.5503 167.867V167.941C51.5503 168.316 51.5972 168.659 51.6909 168.97C51.7876 169.28 51.9194 169.547 52.0864 169.77C52.2534 169.989 52.4497 170.161 52.6753 170.284C52.9009 170.407 53.144 170.468 53.4048 170.468C53.6685 170.468 53.938 170.404 54.2134 170.275C54.4917 170.143 54.7729 169.931 55.0571 169.638ZM54.231 166.109C54.231 165.974 54.2075 165.848 54.1606 165.731C54.1167 165.614 54.0537 165.513 53.9717 165.428C53.8926 165.34 53.7974 165.271 53.686 165.221C53.5747 165.171 53.4546 165.146 53.3257 165.146C53.1353 165.146 52.9624 165.18 52.8071 165.248C52.6519 165.315 52.5127 165.407 52.3896 165.524C52.2666 165.639 52.1582 165.773 52.0645 165.929C51.9707 166.081 51.8901 166.244 51.8228 166.417C51.7583 166.589 51.7056 166.767 51.6646 166.948C51.6235 167.13 51.5942 167.307 51.5767 167.48C51.9927 167.451 52.3647 167.401 52.6929 167.331C53.0239 167.257 53.3022 167.165 53.5278 167.054C53.7563 166.939 53.9307 166.805 54.0508 166.649C54.1709 166.491 54.231 166.311 54.231 166.109ZM58.3047 159.205C58.2461 159.703 58.1875 160.214 58.1289 160.739C58.0732 161.26 58.019 161.789 57.9663 162.325C57.9165 162.858 57.8696 163.395 57.8257 163.934C57.7817 164.473 57.7437 165.004 57.7114 165.529C57.6792 166.05 57.6543 166.563 57.6367 167.067C57.6191 167.571 57.6104 168.054 57.6104 168.517C57.6104 168.807 57.6133 169.056 57.6191 169.264C57.6279 169.472 57.6396 169.648 57.6543 169.792C57.6719 169.935 57.6938 170.051 57.7202 170.139C57.7495 170.227 57.7847 170.294 57.8257 170.341C57.8667 170.388 57.915 170.42 57.9707 170.438C58.0264 170.452 58.0923 170.459 58.1685 170.459C58.3091 170.459 58.46 170.439 58.6211 170.398C58.7852 170.354 58.9507 170.294 59.1177 170.218L59.2012 170.446C59.0957 170.531 58.9624 170.618 58.8013 170.706C58.6431 170.793 58.4761 170.874 58.3003 170.947C58.1245 171.021 57.9517 171.079 57.7817 171.123C57.6147 171.17 57.4697 171.193 57.3467 171.193C57.1885 171.193 57.0625 171.152 56.9688 171.07C56.8779 170.991 56.8076 170.861 56.7578 170.679C56.7109 170.498 56.6802 170.262 56.6655 169.972C56.6538 169.679 56.6479 169.323 56.6479 168.904C56.6479 168.751 56.6523 168.535 56.6611 168.253C56.6699 167.969 56.6816 167.64 56.6963 167.265C56.7139 166.89 56.7329 166.479 56.7534 166.034C56.7739 165.589 56.7959 165.129 56.8193 164.654C56.8428 164.177 56.8677 163.696 56.894 163.213C56.9204 162.727 56.9468 162.258 56.9731 161.807C56.9995 161.353 57.0244 160.925 57.0479 160.523C57.0713 160.122 57.0933 159.768 57.1138 159.46C57.1167 159.39 57.1372 159.33 57.1753 159.28C57.2134 159.227 57.2617 159.186 57.3203 159.157C57.3818 159.125 57.4492 159.101 57.5225 159.086C57.5986 159.072 57.6748 159.064 57.751 159.064C57.9268 159.064 58.1113 159.111 58.3047 159.205ZM59.5967 168.473C59.5967 168.177 59.6274 167.877 59.689 167.572C59.7505 167.268 59.8413 166.973 59.9614 166.689C60.0815 166.402 60.2295 166.134 60.4053 165.885C60.584 165.633 60.7891 165.413 61.0205 165.226C61.252 165.038 61.5098 164.89 61.7939 164.782C62.0781 164.673 62.3872 164.619 62.7212 164.619C63.0962 164.619 63.4272 164.698 63.7144 164.856C64.0044 165.015 64.2476 165.224 64.4438 165.485C64.6401 165.743 64.7881 166.037 64.8877 166.368C64.9902 166.699 65.0415 167.038 65.0415 167.383C65.0415 167.679 65.0107 167.979 64.9492 168.284C64.8877 168.589 64.7954 168.885 64.6724 169.172C64.5522 169.456 64.4028 169.724 64.2241 169.976C64.0483 170.225 63.8447 170.443 63.6133 170.631C63.3818 170.818 63.124 170.966 62.8398 171.075C62.5557 171.183 62.2466 171.237 61.9126 171.237C61.5376 171.237 61.2051 171.158 60.915 171C60.6279 170.842 60.3862 170.634 60.1899 170.376C59.9966 170.115 59.8486 169.819 59.7461 169.488C59.6465 169.157 59.5967 168.819 59.5967 168.473ZM60.647 168.056C60.647 168.255 60.6616 168.457 60.6909 168.662C60.7231 168.867 60.7715 169.065 60.8359 169.255C60.9004 169.446 60.9795 169.625 61.0732 169.792C61.1699 169.956 61.2827 170.099 61.4116 170.222C61.5435 170.345 61.6899 170.442 61.8511 170.512C62.0151 170.583 62.1953 170.618 62.3916 170.618C62.6055 170.618 62.793 170.572 62.9541 170.481C63.1182 170.388 63.2588 170.265 63.376 170.112C63.4961 169.96 63.5942 169.786 63.6704 169.589C63.7495 169.393 63.8125 169.191 63.8594 168.983C63.9062 168.772 63.9385 168.564 63.9561 168.359C63.9766 168.154 63.9868 167.965 63.9868 167.792C63.9868 167.59 63.9707 167.388 63.9385 167.186C63.9092 166.98 63.8623 166.784 63.7979 166.597C63.7334 166.406 63.6528 166.229 63.5562 166.065C63.4624 165.898 63.3496 165.754 63.2178 165.634C63.0889 165.511 62.9424 165.415 62.7783 165.344C62.6172 165.274 62.4385 165.239 62.2422 165.239C62.0283 165.239 61.8394 165.284 61.6753 165.375C61.5142 165.466 61.3735 165.587 61.2534 165.74C61.1362 165.892 61.0381 166.066 60.959 166.263C60.8828 166.459 60.8213 166.661 60.7744 166.869C60.7275 167.077 60.6938 167.285 60.6733 167.493C60.6558 167.698 60.647 167.886 60.647 168.056ZM65.3359 165.138C65.6641 165.038 65.9438 164.958 66.1753 164.896C66.4067 164.834 66.6001 164.786 66.7554 164.751C66.9136 164.716 67.0366 164.692 67.1245 164.681C67.2153 164.666 67.2827 164.659 67.3267 164.659C67.3999 164.659 67.4688 164.67 67.5332 164.694C67.5977 164.714 67.6533 164.751 67.7002 164.804C67.75 164.856 67.7881 164.928 67.8145 165.019C67.8408 165.107 67.854 165.217 67.854 165.349C67.854 165.393 67.8511 165.479 67.8452 165.608C67.8423 165.737 67.835 165.916 67.8232 166.144C67.8115 166.37 67.7954 166.648 67.7749 166.979C67.7573 167.307 67.7339 167.694 67.7046 168.139L67.7573 168.144C67.9858 167.575 68.2319 167.073 68.4956 166.636C68.7622 166.197 69.0317 165.828 69.3042 165.529C69.5796 165.23 69.8535 165.004 70.126 164.852C70.3984 164.697 70.6577 164.619 70.9038 164.619C71.103 164.619 71.2788 164.657 71.4312 164.733C71.5835 164.807 71.7153 164.906 71.8267 165.032C71.9409 165.155 72.0361 165.299 72.1123 165.463C72.1885 165.624 72.25 165.794 72.2969 165.973C72.3438 166.148 72.3774 166.327 72.3979 166.509C72.4185 166.69 72.4287 166.86 72.4287 167.019C72.4287 167.449 72.3848 167.852 72.2969 168.227C72.209 168.602 72.0889 168.946 71.9365 169.26C71.7842 169.57 71.604 169.849 71.396 170.095C71.188 170.341 70.9624 170.549 70.7192 170.719C70.479 170.886 70.2256 171.013 69.959 171.101C69.6953 171.192 69.4302 171.237 69.1636 171.237C68.8794 171.237 68.6025 171.186 68.333 171.083C68.0635 170.981 67.8101 170.811 67.5728 170.574C67.5405 171.309 67.5083 172.068 67.4761 172.85C67.4438 173.635 67.4263 174.454 67.4233 175.307L66.5005 175.412L66.4082 175.408C66.4521 174.86 66.4932 174.284 66.5312 173.681C66.5693 173.08 66.6045 172.477 66.6367 171.87C66.6689 171.264 66.6982 170.667 66.7246 170.082C66.751 169.493 66.7729 168.94 66.7905 168.425C66.8081 167.909 66.8213 167.442 66.8301 167.023C66.8418 166.601 66.8477 166.252 66.8477 165.977C66.8477 165.866 66.8418 165.769 66.8301 165.687C66.8184 165.602 66.7949 165.532 66.7598 165.476C66.7275 165.42 66.6792 165.379 66.6147 165.353C66.5503 165.324 66.4653 165.309 66.3599 165.309C66.2515 165.309 66.1196 165.321 65.9644 165.344C65.8091 165.368 65.6216 165.407 65.4019 165.463L65.3359 165.138ZM67.6123 170.095C67.8613 170.306 68.1089 170.461 68.355 170.561C68.604 170.66 68.853 170.71 69.1021 170.71C69.4302 170.71 69.7319 170.641 70.0073 170.503C70.2856 170.363 70.5244 170.155 70.7236 169.879C70.9258 169.604 71.0825 169.264 71.1938 168.86C71.3081 168.453 71.3652 167.981 71.3652 167.445C71.3652 167.246 71.3491 167.041 71.3169 166.83C71.2876 166.619 71.2393 166.428 71.1719 166.258C71.1074 166.085 71.021 165.945 70.9126 165.836C70.8071 165.725 70.6782 165.669 70.5259 165.669C70.3472 165.669 70.1699 165.716 69.9941 165.81C69.8184 165.901 69.647 166.025 69.48 166.184C69.3159 166.339 69.1577 166.522 69.0054 166.733C68.853 166.944 68.7095 167.168 68.5747 167.405C68.4399 167.64 68.3169 167.883 68.2056 168.135C68.0942 168.384 67.9961 168.627 67.9111 168.864C67.8291 169.102 67.7617 169.326 67.709 169.537C67.6592 169.748 67.627 169.934 67.6123 170.095ZM77.9263 169.638C77.9438 169.646 77.9658 169.66 77.9922 169.677C78.0215 169.692 78.0479 169.709 78.0713 169.73C78.0947 169.748 78.1152 169.768 78.1328 169.792C78.1504 169.812 78.1592 169.833 78.1592 169.853C78.1592 169.865 78.1548 169.876 78.146 169.888C77.9819 170.117 77.8047 170.316 77.6143 170.486C77.4268 170.653 77.2305 170.793 77.0254 170.908C76.8232 171.019 76.6167 171.101 76.4058 171.154C76.1948 171.209 75.9868 171.237 75.7817 171.237C75.4302 171.237 75.1079 171.166 74.8149 171.022C74.522 170.878 74.27 170.682 74.0591 170.433C73.8481 170.184 73.6826 169.893 73.5625 169.559C73.4453 169.222 73.3867 168.861 73.3867 168.478C73.3867 168.164 73.4204 167.851 73.4878 167.537C73.5581 167.224 73.6577 166.925 73.7866 166.641C73.9185 166.356 74.0781 166.093 74.2656 165.85C74.4531 165.604 74.6655 165.391 74.9028 165.212C75.1431 165.031 75.4053 164.889 75.6895 164.786C75.9766 164.684 76.2842 164.632 76.6123 164.632C76.8291 164.632 77.0356 164.662 77.2319 164.72C77.4282 164.779 77.5996 164.864 77.7461 164.975C77.8955 165.083 78.0142 165.218 78.1021 165.379C78.1899 165.541 78.2339 165.724 78.2339 165.929C78.2339 166.228 78.1357 166.488 77.9395 166.711C77.7461 166.934 77.478 167.123 77.1353 167.278C76.7925 167.433 76.3882 167.559 75.9224 167.656C75.4595 167.75 74.9585 167.82 74.4194 167.867V167.941C74.4194 168.316 74.4663 168.659 74.5601 168.97C74.6567 169.28 74.7886 169.547 74.9556 169.77C75.1226 169.989 75.3188 170.161 75.5444 170.284C75.77 170.407 76.0132 170.468 76.2739 170.468C76.5376 170.468 76.8071 170.404 77.0825 170.275C77.3608 170.143 77.6421 169.931 77.9263 169.638ZM77.1001 166.109C77.1001 165.974 77.0767 165.848 77.0298 165.731C76.9858 165.614 76.9229 165.513 76.8408 165.428C76.7617 165.34 76.6665 165.271 76.5552 165.221C76.4438 165.171 76.3237 165.146 76.1948 165.146C76.0044 165.146 75.8315 165.18 75.6763 165.248C75.521 165.315 75.3818 165.407 75.2588 165.524C75.1357 165.639 75.0273 165.773 74.9336 165.929C74.8398 166.081 74.7593 166.244 74.6919 166.417C74.6274 166.589 74.5747 166.767 74.5337 166.948C74.4927 167.13 74.4634 167.307 74.4458 167.48C74.8618 167.451 75.2339 167.401 75.562 167.331C75.8931 167.257 76.1714 167.165 76.397 167.054C76.6255 166.939 76.7998 166.805 76.9199 166.649C77.04 166.491 77.1001 166.311 77.1001 166.109ZM79.6885 171.114L79.6182 171.11C79.6416 170.832 79.6636 170.528 79.6841 170.2C79.7046 169.872 79.7236 169.54 79.7412 169.203C79.7588 168.863 79.7734 168.527 79.7852 168.196C79.7998 167.862 79.8115 167.552 79.8203 167.265C79.832 166.975 79.8394 166.715 79.8423 166.487C79.8481 166.258 79.8511 166.078 79.8511 165.946C79.8511 165.838 79.8467 165.744 79.8379 165.665C79.8291 165.586 79.8086 165.52 79.7764 165.467C79.7471 165.415 79.7031 165.376 79.6445 165.353C79.5859 165.327 79.5068 165.313 79.4072 165.313C79.3574 165.313 79.3062 165.316 79.2534 165.322C79.2007 165.328 79.1421 165.337 79.0776 165.349C79.0132 165.36 78.9399 165.376 78.8579 165.397C78.7788 165.415 78.6865 165.437 78.5811 165.463L78.5151 165.146C79.0015 164.971 79.3955 164.848 79.6973 164.777C79.999 164.704 80.2026 164.667 80.3081 164.667C80.5015 164.667 80.6392 164.725 80.7212 164.839C80.8062 164.95 80.8486 165.117 80.8486 165.34C80.8486 165.36 80.8457 165.42 80.8398 165.52C80.834 165.62 80.8252 165.75 80.8135 165.911C80.8047 166.069 80.793 166.254 80.7783 166.465C80.7637 166.676 80.7461 166.903 80.7256 167.146C80.708 167.386 80.6875 167.638 80.6641 167.902C80.6406 168.163 80.6157 168.423 80.5894 168.684L80.6333 168.688C80.7739 168.114 80.9321 167.58 81.1079 167.084C81.2866 166.586 81.4858 166.154 81.7056 165.788C81.9282 165.422 82.1714 165.135 82.4351 164.927C82.7017 164.716 82.9932 164.61 83.3096 164.61C83.4209 164.61 83.5249 164.628 83.6216 164.663C83.7183 164.698 83.8018 164.748 83.8721 164.812C83.9424 164.874 83.998 164.949 84.0391 165.037C84.0801 165.122 84.1006 165.215 84.1006 165.318C84.1006 165.45 84.0713 165.577 84.0127 165.7C83.957 165.82 83.8677 165.927 83.7446 166.021H83.7095C83.5864 165.918 83.4692 165.845 83.3579 165.801C83.2495 165.754 83.1338 165.731 83.0107 165.731C82.8789 165.731 82.7515 165.756 82.6284 165.806C82.5054 165.855 82.3926 165.927 82.29 166.021C82.123 166.173 81.9678 166.375 81.8242 166.627C81.6807 166.876 81.5488 167.153 81.4287 167.458C81.3115 167.763 81.2046 168.083 81.1079 168.42C81.0142 168.754 80.9321 169.081 80.8618 169.4C80.7944 169.717 80.7388 170.016 80.6948 170.297C80.6538 170.575 80.6245 170.81 80.6069 171L79.6885 171.114Z" fill="white"/>
<path d="M16.34 147V141.42L21.3 132.84H17.1L14.54 138.04L11.98 132.84H7.82L12.76 141.42V147H16.34ZM27.2128 132.84H23.9528L19.0128 147H22.8528L23.7328 144.16H27.5128L28.4328 147H32.2728L27.2128 132.84ZM24.5328 140.98L25.5728 136.84H25.6728L26.6528 140.98H24.5328ZM32.3267 144.64C33.6467 146.34 35.4467 147.2 37.1467 147.2C39.7467 147.2 42.6267 145.7 42.7467 142.96C42.9067 139.48 40.3867 138.6 37.8667 138.14C36.7667 137.9 36.0267 137.5 35.9867 136.82C36.0467 135.18 38.5867 135.12 40.0667 136.7L42.4067 134.9C40.9467 133.12 39.2867 132.64 37.5667 132.64C34.9667 132.64 32.4467 134.1 32.4467 136.88C32.4467 139.58 34.5267 141.02 36.8067 141.38C37.9667 141.54 39.2667 142 39.2267 142.8C39.1267 144.32 36.0067 144.24 34.5867 142.52L32.3267 144.64ZM43.6158 144.64C44.9358 146.34 46.7358 147.2 48.4358 147.2C51.0358 147.2 53.9158 145.7 54.0358 142.96C54.1958 139.48 51.6758 138.6 49.1558 138.14C48.0558 137.9 47.3158 137.5 47.2758 136.82C47.3358 135.18 49.8758 135.12 51.3558 136.7L53.6958 134.9C52.2358 133.12 50.5758 132.64 48.8558 132.64C46.2558 132.64 43.7358 134.1 43.7358 136.88C43.7358 139.58 45.8158 141.02 48.0958 141.38C49.2558 141.54 50.5558 142 50.5158 142.8C50.4158 144.32 47.2958 144.24 45.8758 142.52L43.6158 144.64ZM59.2048 136.2H65.4448V132.84H55.5848V147H65.4448V143.62H59.2048V141.5H64.9448V138.4H59.2048V136.2ZM74.8827 147H79.3427L75.4827 142.14C77.2027 141.6 78.2627 140.12 78.2627 137.5C78.1827 134.18 75.9227 132.84 73.0027 132.84H67.3427V147H70.9627V142.5H71.6027L74.8827 147ZM70.9627 139.42V136.18H73.0627C75.3227 136.18 75.3227 139.42 73.0627 139.42H70.9627Z" fill="white"/>
</svg>
