<svg width="68" height="140" viewBox="0 0 68 140" fill="none" xmlns="http://www.w3.org/2000/svg">
<path d="M10.707 50.164C9.047 50.164 7.41467 49.7767 5.81 49.002C4.26067 48.172 2.96033 46.927 1.909 45.267C0.913 43.5517 0.415 41.366 0.415 38.71C0.415 36.6627 1.328 35.058 3.154 33.896C4.98 32.6787 7.387 31.821 10.375 31.323C13.4183 30.825 16.6553 30.6313 20.086 30.742C20.75 30.742 21.7737 30.7143 23.157 30.659C24.5403 30.6037 26.0067 30.493 27.556 30.327C29.1607 30.161 30.6547 29.912 32.038 29.58C33.4213 29.1927 34.445 28.6947 35.109 28.086C35.3303 27.8093 35.441 27.588 35.441 27.422C35.4963 27.256 35.524 27.1177 35.524 27.007C35.524 26.343 35.607 26.011 35.773 26.011C35.939 26.011 36.105 26.26 36.271 26.758C36.3263 26.924 36.354 27.173 36.354 27.505C36.354 28.4457 35.856 29.2203 34.86 29.829C33.864 30.4377 32.5913 30.908 31.042 31.24C29.548 31.572 28.0263 31.821 26.477 31.987C24.9277 32.0977 23.572 32.153 22.41 32.153C20.0307 32.153 17.596 32.236 15.106 32.402C12.6713 32.5127 10.4027 32.7893 8.3 33.232C6.25267 33.6747 4.59267 34.3387 3.32 35.224C2.10267 36.054 1.494 37.216 1.494 38.71C1.494 40.5913 2.29633 42.0853 3.901 43.192C5.50567 44.2987 7.66367 44.852 10.375 44.852C11.4817 44.852 12.6437 44.769 13.861 44.603C15.0783 44.3817 16.102 44.022 16.932 43.524C17.8173 43.026 18.26 42.362 18.26 41.532C18.26 40.0933 17.0703 38.9867 14.691 38.212C14.3037 38.212 14.11 38.046 14.11 37.714C14.11 37.3267 14.4143 37.216 15.023 37.382C16.6277 37.9353 17.845 38.71 18.675 39.706C19.505 40.6467 19.92 41.9193 19.92 43.524C19.92 45.1287 19.3667 46.429 18.26 47.425C17.2087 48.3657 15.9637 49.0573 14.525 49.5C13.0863 49.9427 11.8137 50.164 10.707 50.164ZM18.011 124.117C14.857 124.117 12.5053 122.983 10.956 120.714C9.40667 118.501 8.632 115.762 8.632 112.497C8.632 109.343 9.32367 105.968 10.707 102.371C12.1457 98.8297 14.2207 95.6203 16.932 92.743C19.2007 90.3083 21.6907 88.3717 24.402 86.933C27.1687 85.439 29.6863 84.692 31.955 84.692C33.781 84.692 35.3027 85.3007 36.52 86.518C37.7927 87.68 38.429 89.5613 38.429 92.162C38.429 93.988 38.1247 95.897 37.516 97.889C36.9073 99.881 36.2433 101.624 35.524 103.118C33.4213 107.434 31.3187 110.533 29.216 112.414C27.1687 114.351 25.398 115.319 23.904 115.319C22.7973 115.319 21.912 114.849 21.248 113.908C20.584 112.967 20.252 111.639 20.252 109.924C20.252 108.209 20.584 106.3 21.248 104.197C21.9673 102.094 22.908 100.102 24.07 98.221C25.232 96.395 26.5047 94.901 27.888 93.739C29.3267 92.6323 30.7377 92.162 32.121 92.328C32.8403 92.494 33.3937 92.743 33.781 93.075C33.8917 93.2963 33.947 93.407 33.947 93.407C33.947 93.5177 33.8363 93.573 33.615 93.573C33.449 93.573 33.2553 93.5453 33.034 93.49C32.9787 93.2687 32.619 93.158 31.955 93.158C30.793 93.158 29.6587 93.6007 28.552 94.486C27.5007 95.3713 26.56 96.5057 25.73 97.889C24.9553 99.3277 24.319 100.822 23.821 102.371C23.3783 103.92 23.157 105.359 23.157 106.687C23.157 108.181 23.4613 109.343 24.07 110.173C24.6787 111.003 25.4533 111.418 26.394 111.418C27.556 111.418 28.884 110.726 30.378 109.343C31.9273 108.015 33.4213 105.885 34.86 102.952C35.6347 101.403 36.2433 99.8257 36.686 98.221C37.184 96.6163 37.433 95.1777 37.433 93.905C37.433 91.8023 37.018 90.3083 36.188 89.423C35.4133 88.5377 34.3897 88.095 33.117 88.095C31.8997 88.095 30.544 88.4547 29.05 89.174C27.6113 89.8933 26.2003 90.8617 24.817 92.079C23.4337 93.2963 22.244 94.652 21.248 96.146C19.9753 98.138 18.7857 100.379 17.679 102.869C16.6277 105.359 15.77 107.794 15.106 110.173C14.4973 112.608 14.193 114.766 14.193 116.647C14.193 118.307 14.4697 119.635 15.023 120.631C15.6317 121.682 16.6 122.208 17.928 122.208C19.4773 122.208 21.1373 121.738 22.908 120.797C24.734 119.856 26.5877 118.611 28.469 117.062C30.3503 115.513 32.1487 113.797 33.864 111.916C35.5793 110.035 37.101 108.153 38.429 106.272C41.1957 102.343 43.4643 98.553 45.235 94.901C47.061 91.249 48.6933 87.4863 50.132 83.613C51.128 80.957 52.0687 77.9967 52.954 74.732C53.8393 71.412 54.5587 68.0367 55.112 64.606C55.6653 61.12 55.942 57.8277 55.942 54.729C55.942 53.2903 55.859 51.907 55.693 50.579C55.5823 49.251 55.361 48.0337 55.029 46.927C53.7563 49.9703 52.0687 53.2073 49.966 56.638C47.8633 60.0133 45.5117 63.3333 42.911 66.598C40.3657 69.8073 37.7373 72.7123 35.026 75.313C32.37 77.9137 29.7693 79.9887 27.224 81.538C24.734 83.0873 22.493 83.862 20.501 83.862C18.2877 83.862 16.6 83.1427 15.438 81.704C14.3313 80.21 13.778 78.218 13.778 75.728C13.778 72.408 14.276 69.005 15.272 65.519C16.3233 62.033 17.6237 58.5193 19.173 54.978C20.7777 51.3813 22.41 47.757 24.07 44.105C25.7853 40.3977 27.307 36.6903 28.635 32.983L33.2 38.793C32.7573 39.6783 32.0103 41.117 30.959 43.109C29.9077 45.101 28.7457 47.3973 27.473 49.998C26.2557 52.5987 25.0383 55.3377 23.821 58.215C22.659 61.037 21.6907 63.8313 20.916 66.598C20.1967 69.3093 19.837 71.7717 19.837 73.985C19.837 75.5343 20.1137 76.89 20.667 78.052C21.2203 79.214 22.1057 79.795 23.323 79.795C24.3743 79.795 25.7023 79.3523 27.307 78.467C28.967 77.5263 30.6823 76.3643 32.453 74.981C34.2237 73.5423 35.8837 72.0483 37.433 70.499C38.9823 68.9497 40.2273 67.5663 41.168 66.349C42.828 64.025 44.488 61.618 46.148 59.128C47.808 56.638 49.302 54.1203 50.63 51.575C52.0133 48.9743 53.037 46.4567 53.701 44.022C52.9817 43.4133 52.29 42.528 51.626 41.366C50.962 40.204 50.4087 39.0143 49.966 37.797C49.5787 36.5243 49.385 35.473 49.385 34.643C49.385 33.7577 49.717 33.0107 50.381 32.402C51.045 31.738 51.792 31.406 52.622 31.406C54.0053 31.406 55.1397 32.0147 56.025 33.232C56.9657 34.394 57.436 35.7773 57.436 37.382C57.436 38.4333 57.27 39.623 56.938 40.951C56.6613 42.2237 56.274 43.607 55.776 45.101C57.2147 47.4803 58.2383 50.081 58.847 52.903C59.4557 55.6697 59.76 58.5193 59.76 61.452C59.76 65.7127 59.262 70.0287 58.266 74.4C57.27 78.716 56.1357 82.7553 54.863 86.518C53.867 89.506 52.6497 92.4663 51.211 95.399C49.7723 98.3317 48.2507 101.071 46.646 103.616C45.0967 106.217 43.5473 108.458 41.998 110.339C39.7847 112.94 37.5437 115.264 35.275 117.311C33.0617 119.358 30.5717 120.963 27.805 122.125C25.0383 123.342 21.7737 124.006 18.011 124.117Z" fill="#05FDD8"/>
<path d="M13.707 50.164C12.047 50.164 10.4147 49.7767 8.81 49.002C7.26067 48.172 5.96033 46.927 4.909 45.267C3.913 43.5517 3.415 41.366 3.415 38.71C3.415 36.6627 4.328 35.058 6.154 33.896C7.98 32.6787 10.387 31.821 13.375 31.323C16.4183 30.825 19.6553 30.6313 23.086 30.742C23.75 30.742 24.7737 30.7143 26.157 30.659C27.5403 30.6037 29.0067 30.493 30.556 30.327C32.1607 30.161 33.6547 29.912 35.038 29.58C36.4213 29.1927 37.445 28.6947 38.109 28.086C38.3303 27.8093 38.441 27.588 38.441 27.422C38.4963 27.256 38.524 27.1177 38.524 27.007C38.524 26.343 38.607 26.011 38.773 26.011C38.939 26.011 39.105 26.26 39.271 26.758C39.3263 26.924 39.354 27.173 39.354 27.505C39.354 28.4457 38.856 29.2203 37.86 29.829C36.864 30.4377 35.5913 30.908 34.042 31.24C32.548 31.572 31.0263 31.821 29.477 31.987C27.9277 32.0977 26.572 32.153 25.41 32.153C23.0307 32.153 20.596 32.236 18.106 32.402C15.6713 32.5127 13.4027 32.7893 11.3 33.232C9.25267 33.6747 7.59267 34.3387 6.32 35.224C5.10267 36.054 4.494 37.216 4.494 38.71C4.494 40.5913 5.29633 42.0853 6.901 43.192C8.50567 44.2987 10.6637 44.852 13.375 44.852C14.4817 44.852 15.6437 44.769 16.861 44.603C18.0783 44.3817 19.102 44.022 19.932 43.524C20.8173 43.026 21.26 42.362 21.26 41.532C21.26 40.0933 20.0703 38.9867 17.691 38.212C17.3037 38.212 17.11 38.046 17.11 37.714C17.11 37.3267 17.4143 37.216 18.023 37.382C19.6277 37.9353 20.845 38.71 21.675 39.706C22.505 40.6467 22.92 41.9193 22.92 43.524C22.92 45.1287 22.3667 46.429 21.26 47.425C20.2087 48.3657 18.9637 49.0573 17.525 49.5C16.0863 49.9427 14.8137 50.164 13.707 50.164ZM21.011 124.117C17.857 124.117 15.5053 122.983 13.956 120.714C12.4067 118.501 11.632 115.762 11.632 112.497C11.632 109.343 12.3237 105.968 13.707 102.371C15.1457 98.8297 17.2207 95.6203 19.932 92.743C22.2007 90.3083 24.6907 88.3717 27.402 86.933C30.1687 85.439 32.6863 84.692 34.955 84.692C36.781 84.692 38.3027 85.3007 39.52 86.518C40.7927 87.68 41.429 89.5613 41.429 92.162C41.429 93.988 41.1247 95.897 40.516 97.889C39.9073 99.881 39.2433 101.624 38.524 103.118C36.4213 107.434 34.3187 110.533 32.216 112.414C30.1687 114.351 28.398 115.319 26.904 115.319C25.7973 115.319 24.912 114.849 24.248 113.908C23.584 112.967 23.252 111.639 23.252 109.924C23.252 108.209 23.584 106.3 24.248 104.197C24.9673 102.094 25.908 100.102 27.07 98.221C28.232 96.395 29.5047 94.901 30.888 93.739C32.3267 92.6323 33.7377 92.162 35.121 92.328C35.8403 92.494 36.3937 92.743 36.781 93.075C36.8917 93.2963 36.947 93.407 36.947 93.407C36.947 93.5177 36.8363 93.573 36.615 93.573C36.449 93.573 36.2553 93.5453 36.034 93.49C35.9787 93.2687 35.619 93.158 34.955 93.158C33.793 93.158 32.6587 93.6007 31.552 94.486C30.5007 95.3713 29.56 96.5057 28.73 97.889C27.9553 99.3277 27.319 100.822 26.821 102.371C26.3783 103.92 26.157 105.359 26.157 106.687C26.157 108.181 26.4613 109.343 27.07 110.173C27.6787 111.003 28.4533 111.418 29.394 111.418C30.556 111.418 31.884 110.726 33.378 109.343C34.9273 108.015 36.4213 105.885 37.86 102.952C38.6347 101.403 39.2433 99.8257 39.686 98.221C40.184 96.6163 40.433 95.1777 40.433 93.905C40.433 91.8023 40.018 90.3083 39.188 89.423C38.4133 88.5377 37.3897 88.095 36.117 88.095C34.8997 88.095 33.544 88.4547 32.05 89.174C30.6113 89.8933 29.2003 90.8617 27.817 92.079C26.4337 93.2963 25.244 94.652 24.248 96.146C22.9753 98.138 21.7857 100.379 20.679 102.869C19.6277 105.359 18.77 107.794 18.106 110.173C17.4973 112.608 17.193 114.766 17.193 116.647C17.193 118.307 17.4697 119.635 18.023 120.631C18.6317 121.682 19.6 122.208 20.928 122.208C22.4773 122.208 24.1373 121.738 25.908 120.797C27.734 119.856 29.5877 118.611 31.469 117.062C33.3503 115.513 35.1487 113.797 36.864 111.916C38.5793 110.035 40.101 108.153 41.429 106.272C44.1957 102.343 46.4643 98.553 48.235 94.901C50.061 91.249 51.6933 87.4863 53.132 83.613C54.128 80.957 55.0687 77.9967 55.954 74.732C56.8393 71.412 57.5587 68.0367 58.112 64.606C58.6653 61.12 58.942 57.8277 58.942 54.729C58.942 53.2903 58.859 51.907 58.693 50.579C58.5823 49.251 58.361 48.0337 58.029 46.927C56.7563 49.9703 55.0687 53.2073 52.966 56.638C50.8633 60.0133 48.5117 63.3333 45.911 66.598C43.3657 69.8073 40.7373 72.7123 38.026 75.313C35.37 77.9137 32.7693 79.9887 30.224 81.538C27.734 83.0873 25.493 83.862 23.501 83.862C21.2877 83.862 19.6 83.1427 18.438 81.704C17.3313 80.21 16.778 78.218 16.778 75.728C16.778 72.408 17.276 69.005 18.272 65.519C19.3233 62.033 20.6237 58.5193 22.173 54.978C23.7777 51.3813 25.41 47.757 27.07 44.105C28.7853 40.3977 30.307 36.6903 31.635 32.983L36.2 38.793C35.7573 39.6783 35.0103 41.117 33.959 43.109C32.9077 45.101 31.7457 47.3973 30.473 49.998C29.2557 52.5987 28.0383 55.3377 26.821 58.215C25.659 61.037 24.6907 63.8313 23.916 66.598C23.1967 69.3093 22.837 71.7717 22.837 73.985C22.837 75.5343 23.1137 76.89 23.667 78.052C24.2203 79.214 25.1057 79.795 26.323 79.795C27.3743 79.795 28.7023 79.3523 30.307 78.467C31.967 77.5263 33.6823 76.3643 35.453 74.981C37.2237 73.5423 38.8837 72.0483 40.433 70.499C41.9823 68.9497 43.2273 67.5663 44.168 66.349C45.828 64.025 47.488 61.618 49.148 59.128C50.808 56.638 52.302 54.1203 53.63 51.575C55.0133 48.9743 56.037 46.4567 56.701 44.022C55.9817 43.4133 55.29 42.528 54.626 41.366C53.962 40.204 53.4087 39.0143 52.966 37.797C52.5787 36.5243 52.385 35.473 52.385 34.643C52.385 33.7577 52.717 33.0107 53.381 32.402C54.045 31.738 54.792 31.406 55.622 31.406C57.0053 31.406 58.1397 32.0147 59.025 33.232C59.9657 34.394 60.436 35.7773 60.436 37.382C60.436 38.4333 60.27 39.623 59.938 40.951C59.6613 42.2237 59.274 43.607 58.776 45.101C60.2147 47.4803 61.2383 50.081 61.847 52.903C62.4557 55.6697 62.76 58.5193 62.76 61.452C62.76 65.7127 62.262 70.0287 61.266 74.4C60.27 78.716 59.1357 82.7553 57.863 86.518C56.867 89.506 55.6497 92.4663 54.211 95.399C52.7723 98.3317 51.2507 101.071 49.646 103.616C48.0967 106.217 46.5473 108.458 44.998 110.339C42.7847 112.94 40.5437 115.264 38.275 117.311C36.0617 119.358 33.5717 120.963 30.805 122.125C28.0383 123.342 24.7737 124.006 21.011 124.117Z" fill="#FD2155"/>
</svg>
